<?xml version="1.0" encoding="UTF-8" standalone="no"?>
<!-- Created with Inkscape (http://www.inkscape.org/) -->
<svg
        width="253.659mm"
        height="253.65898mm"
        viewBox="0 0 253.65899 253.65898"
        version="1.1"
        id="svg5"
        xmlns:inkscape="http://www.inkscape.org/namespaces/inkscape"
        xmlns:sodipodi="http://sodipodi.sourceforge.net/DTD/sodipodi-0.dtd"
        xmlns="http://www.w3.org/2000/svg"
        xmlns:svg="http://www.w3.org/2000/svg">
    <sodipodi:namedview
            id="namedview7"
            pagecolor="#ffffff"
            bordercolor="#999999"
            borderopacity="1"
            inkscape:pageshadow="0"
            inkscape:pageopacity="0"
            inkscape:pagecheckerboard="0"
            inkscape:document-units="mm"
            showgrid="false"
            inkscape:zoom="0.57994529"
            inkscape:cx="473.32051"
            inkscape:cy="455.21536"
            inkscape:window-width="1440"
            inkscape:window-height="972"
            inkscape:window-x="0"
            inkscape:window-y="25"
            inkscape:window-maximized="0"
            inkscape:current-layer="layer1" />
    <defs
            id="defs2" />
    <g
            inkscape:groupmode="layer"
            id="layer4"
            inkscape:label="Layer 3"
            transform="translate(0.91244507,1.8248825)">
        <ellipse
                style="fill:#808080;fill-rule:evenodd;stroke-width:0.56169;stroke-linecap:square"
                id="path1622"
                cx="125.91705"
                cy="125.00461"
                rx="126.8295"
                ry="126.82949" />
        <path
                style="fill:#ffffff;fill-rule:evenodd;stroke-width:3.62103;stroke-linecap:square"
                d="M 452.62891,956.91803 C 350.86137,951.36937 250.41964,911.64045 172.43006,846.08759 94.391847,780.49385 38.690634,690.97306 14.517808,592.29725 4.7024791,552.23013 1.9565877,527.84997 1.8945063,480.21771 1.8358061,435.17978 3.7051659,415.52954 11.490588,379.34613 43.515836,230.50609 145.7853,104.46795 284.99087,42.28104 347.24103,14.472198 408.95308,1.5350962 479.35556,1.5350962 c 65.58607,0 118.59305,10.1060208 177.98547,33.9337358 142.84739,57.309124 250.14409,181.098688 286.8523,330.945048 9.93226,40.54448 12.58675,64.36341 12.58675,112.94168 0,48.57828 -2.65449,72.39721 -12.58675,112.94169 -36.73479,149.95494 -143.99902,273.6019 -287.2348,331.10491 -44.63096,17.91741 -99.0405,30.48357 -141.57062,32.69641 -10.33413,0.53769 -23.44495,1.2276 -29.13514,1.53313 -5.6902,0.30553 -20.82093,-0.0155 -33.62386,-0.71367 z"
                id="path1915"
                transform="matrix(0.26458333,0,0,0.26458333,-0.91244507,-1.8248825)" />
    </g>
    <g
            inkscape:label="Layer 1"
            inkscape:groupmode="layer"
            id="layer1"
            style="display:inline"
            transform="translate(20.722615,-27.612947)">
        <g
                id="g10738"
                transform="matrix(0.82794412,0,0,0.82794412,15.34615,32.845453)">
            <g
                    id="g880"
                    transform="matrix(0.20201818,0,0,0.2223232,14.44674,34.456264)">
                <g
                        id="g826">
                    <path
                            d="m 915.782,175.466 c -13.686,-3.574 -25.641,4.881 -30.016,17.544 -0.977,2.828 -1.981,5.646 -3.05,8.441 -0.434,1.136 -0.869,2.271 -1.315,3.401 -2.048,4.887 -4.182,9.737 -6.453,14.523 -10.823,22.796 -23.795,44.614 -38.639,65.023 -1.241,1.708 -2.486,3.414 -3.755,5.103 -0.109,0.146 -0.257,0.34 -0.422,0.556 -1.763,2.268 -3.538,4.527 -5.352,6.754 -4.03,4.949 -8.149,9.828 -12.421,14.571 -8.843,9.818 -18.147,19.242 -28.083,27.96 -2.745,2.408 -5.516,4.791 -8.349,7.095 -1.122,0.914 -5.98,4.655 -5.812,4.576 -4.098,3.013 -8.264,5.934 -12.546,8.676 -8.932,5.72 -18.228,10.926 -27.925,15.241 7.816,-5.601 15.423,-11.935 22.617,-19.13 58.349,-58.348 61.183,-143.418 61.318,-152.931 l 0.413,-29.999 c 0.228,-16.568 -13.02,-29.814 -29.586,-29.587 -16.568,0.229 -30,0.413 -30,0.413 -8.554,0.122 -78.188,2.435 -134.562,45.311 0.841,-6.866 1.525,-13.73 2.064,-20.564 3.793,-47.972 0.523,-96.182 -5.224,-143.863 C 617.084,11.291 608.699,0 594.106,0 581.917,0 567.92,11.254 569.527,24.58 c 5.585,46.335 9.012,93.326 5.522,139.965 -0.485,6.48 -1.062,12.957 -1.837,19.409 -0.054,0.451 -0.096,0.808 -0.13,1.097 -0.018,0.118 -0.033,0.231 -0.051,0.364 -0.177,1.277 -0.358,2.554 -0.546,3.83 -0.384,2.542 -0.771,5.083 -1.209,7.617 -1.937,11.242 -4.313,22.425 -7.475,33.392 -1.721,5.972 -3.581,11.909 -5.729,17.741 -0.074,0.201 -0.216,0.564 -0.394,1.015 -17.52,-37.73 -40.952,-62.731 -45.013,-66.913 l -20.923,-21.505 c -11.557,-11.877 -30.291,-11.877 -41.847,0 -11.556,11.877 -20.924,21.505 -20.924,21.505 -6.018,6.193 -54.329,58.037 -63.239,129.227 l -16.557,-17.021 c -9.143,-9.4 -25.904,-7.383 -37.435,4.509 -11.531,11.89 -20.881,21.528 -20.881,21.528 -6.019,6.193 -54.274,58.092 -63.186,129.282 l -16.503,-16.97 c -9.111,-9.369 -25.822,-7.293 -37.312,4.651 -11.488,11.944 -20.826,21.602 -20.826,21.602 -6.63,6.824 -64.358,69.422 -64.358,151.93 0,82.527 59.016,145.543 65.645,152.365 l 4.45,4.529 -130.156,130.162 c -14.398,14.398 -17.24,34.902 -6.518,45.625 10.722,10.721 31.225,7.881 45.624,-6.518 l 130.2,-130.201 c 7.957,7.686 69.483,64.592 151.312,64.631 82.518,-0.01 144.73,-58.104 151.555,-64.732 l 21.506,-20.924 c 11.877,-11.555 13.885,-28.334 4.484,-37.479 -9.4,-9.143 -17.021,-16.555 -17.021,-16.555 71.209,-8.912 123.035,-57.223 129.227,-63.238 l 21.507,-20.926 c 11.877,-11.555 13.885,-28.334 4.483,-37.477 -9.4,-9.145 -17.021,-16.555 -17.021,-16.555 71.209,-8.912 123.035,-57.223 129.228,-63.24 l 21.505,-20.924 c 11.877,-11.557 11.877,-30.291 0,-41.846 -11.877,-11.556 -21.505,-20.924 -21.505,-20.924 -2.65,-2.574 -13.67,-12.932 -30.988,-24.635 41.771,-16.561 78.172,-47.04 107.149,-80.619 34.5,-39.977 62.699,-85.848 79.985,-135.874 4.376,-12.658 -5.333,-26.825 -17.543,-30.014 z M 644.73,246.288 c 43.265,-43.264 112.464,-44.225 112.464,-44.225 0,0 -0.96,69.2 -44.225,112.464 -43.264,43.263 -112.464,44.224 -112.464,44.224 0,0 0.961,-69.199 44.225,-112.463 z M 470.812,222.807 c 0,0 48.254,49.612 48.254,110.805 0,61.191 -48.254,110.804 -48.254,110.804 0,0 -48.253,-49.612 -48.253,-110.804 0,-61.193 48.253,-110.805 48.253,-110.805 z M 332.625,360.994 c 0,0 48.263,49.602 48.263,110.794 0,61.192 -48.253,110.803 -48.253,110.803 0,0 -48.262,-49.604 -48.262,-110.794 0,-61.191 48.252,-110.803 48.252,-110.803 z M 194.438,720.789 c 0,0 -48.252,-49.611 -48.253,-110.805 0,-61.191 48.253,-110.803 48.253,-110.803 0,0 48.253,49.611 48.253,110.803 0,61.194 -48.253,110.805 -48.253,110.805 z m 154.789,92.238 c -56.736,0.008 -103.699,-41.672 -110.015,-47.521 l 10.056,-10.059 c 17.658,-14.18 55.847,-38.949 99.935,-38.949 61.191,0 110.846,48.295 110.846,48.295 0,0 -49.631,48.232 -110.822,48.234 z M 487.409,674.834 c -56.736,0.01 -103.694,-41.666 -110.011,-47.518 l 10.058,-10.057 c 17.657,-14.182 55.865,-38.932 99.953,-38.951 61.183,0.01 110.854,48.324 110.854,48.324 0,0 -49.662,48.202 -110.854,48.202 z M 625.605,536.639 c -56.735,0.01 -103.693,-41.668 -110.01,-47.52 l 1.266,-1.264 -0.638,-0.637 c 9.996,-9.123 54.604,-46.831 109.214,-46.831 61.193,0 110.991,48.016 110.991,48.016 0,0 -49.631,48.236 -110.823,48.236 z"
                            id="path824" />

                </g>
                <g
                        id="g828">
                </g>
                <g
                        id="g830">
                </g>
                <g
                        id="g832">
                </g>
                <g
                        id="g834">
                </g>
                <g
                        id="g836">
                </g>
                <g
                        id="g838">
                </g>
                <g
                        id="g840">
                </g>
                <g
                        id="g842">
                </g>
                <g
                        id="g844">
                </g>
                <g
                        id="g846">
                </g>
                <g
                        id="g848">
                </g>
                <g
                        id="g850">
                </g>
                <g
                        id="g852">
                </g>
                <g
                        id="g854">
                </g>
                <g
                        id="g856">
                </g>
            </g>
            <path
                    style="fill:#fad95f;fill-opacity:1;fill-rule:evenodd;stroke-width:3.62103;stroke-linecap:square"
                    d="m 481.72665,382.36366 c -33.23868,-51.56938 -33.04445,-102.29506 0.58687,-153.27348 4.91749,-7.45393 9.45813,-13.55261 10.09031,-13.55261 2.04326,0 17.19414,23.81048 22.21451,34.91139 21.33772,47.18137 17.30293,88.34583 -13.18331,134.50115 -4.22826,6.40146 -8.32938,11.63903 -9.1136,11.63903 -0.78421,0 -5.55186,-6.40147 -10.59478,-14.22548 z"
                    id="path10328"
                    transform="matrix(0.26458333,0,0,0.26458333,-20.722615,27.612947)" />
            <path
                    style="fill:#fad95f;fill-opacity:1;fill-rule:evenodd;stroke-width:3.62103;stroke-linecap:square"
                    d="m 593.03886,316.2268 c 3.54789,-30.02117 17.5236,-65.90025 31.53893,-80.96818 19.17974,-20.6202 45.30602,-33.49445 77.05104,-37.96845 l 8.45999,-1.19232 -1.11036,11.94699 c -1.72999,18.61408 -7.28486,37.90335 -16.06138,55.77315 -16.7857,34.1772 -50.10645,56.80533 -90.35294,61.3587 l -10.7264,1.21355 z"
                    id="path10367"
                    transform="matrix(0.26458333,0,0,0.26458333,-20.722615,27.612947)" />
            <path
                    style="fill:#fad95f;fill-opacity:1;fill-rule:evenodd;stroke-width:3.62103;stroke-linecap:square"
                    d="m 590.03218,473.19192 c -17.02356,-4.1228 -40.17738,-16.94566 -55.499,-30.73599 l -6.8972,-6.20788 6.8972,-6.26386 c 14.15456,-12.85479 32.65778,-23.44228 51.72902,-29.59921 13.93278,-4.49803 38.55861,-3.69128 53.90503,1.76594 14.06215,5.00054 33.97737,16.82033 45.3596,26.92118 8.93734,7.93119 8.90708,8.0052 -8.73885,21.37528 -28.23747,21.39514 -59.01272,29.46341 -86.7558,22.74454 z"
                    id="path10406"
                    transform="matrix(0.26458333,0,0,0.26458333,-20.722615,27.612947)" />
            <path
                    style="fill:#fad95f;fill-opacity:1;fill-rule:evenodd;stroke-width:3.62103;stroke-linecap:square"
                    d="m 482.41535,588.78133 c -15.28688,-4.11733 -38.30007,-17.0716 -54.5202,-30.68976 -4.43802,-3.7261 -4.68392,-4.47906 -2.58645,-7.91981 3.57837,-5.87002 23.58924,-20.0285 37.93832,-26.84285 18.62118,-8.84316 36.22171,-12.10157 52.38341,-9.69782 21.42712,3.18689 45.89942,15.26513 66.31291,32.72857 l 6.02694,5.15596 -4.30264,4.62772 c -11.43142,12.29512 -38.53627,27.9484 -56.41843,32.58213 -12.74494,3.30255 -32.68727,3.32739 -44.83386,0.0559 z"
                    id="path10445"
                    transform="matrix(0.26458333,0,0,0.26458333,-20.722615,27.612947)" />
            <path
                    style="fill:#fad95f;fill-opacity:1;fill-rule:evenodd;stroke-width:3.62103;stroke-linecap:square"
                    d="m 380.16427,504.90184 c -7.94186,-10.93967 -21.93533,-40.25728 -25.36168,-53.13509 -2.04766,-7.69603 -2.94972,-17.42134 -2.87883,-31.03741 0.092,-17.66379 0.71178,-21.61848 5.67527,-36.21031 5.82238,-17.11685 13.05362,-31.29648 23.18433,-45.46183 l 5.99988,-8.38936 6.15404,8.38936 c 15.00262,20.45199 25.70245,46.84714 28.87862,71.23997 2.35221,18.06491 -0.44889,36.79172 -8.6877,58.0817 -5.62171,14.5271 -21.88045,42.13638 -25.49909,43.30049 -1.13455,0.36498 -4.49373,-2.68491 -7.46484,-6.77752 z"
                    id="path10484"
                    transform="matrix(0.26458333,0,0,0.26458333,-20.722615,27.612947)" />
            <path
                    style="fill:#fad95f;fill-opacity:1;fill-rule:evenodd;stroke-width:3.62103;stroke-linecap:square"
                    d="m 272.54916,617.46458 c -9.21679,-13.86404 -18.2277,-32.6884 -22.7773,-47.58323 -2.34997,-7.69351 -3.15528,-15.87142 -3.14126,-31.89957 0.0174,-19.87124 0.46143,-22.83247 5.68849,-37.93461 5.92668,-17.12353 13.23545,-31.41491 23.16704,-45.30022 l 5.88497,-8.22776 7.281,10.37978 c 9.61397,13.70565 21.51012,39.358 25.14854,54.22921 7.91828,32.36423 0.77049,67.53313 -20.74388,102.06498 -11.43432,18.35278 -11.18135,18.30008 -20.5076,4.27142 z"
                    id="path10523"
                    transform="matrix(0.26458333,0,0,0.26458333,-20.722615,27.612947)" />
            <path
                    style="fill:#fad95f;fill-opacity:1;fill-rule:evenodd;stroke-width:3.62103;stroke-linecap:square"
                    d="m 381.97696,706.08431 c -14.28792,-3.21354 -35.91139,-13.65484 -49.37919,-23.84367 -16.16984,-12.23299 -16.1534,-12.19262 -8.27309,-20.30675 8.8461,-9.10859 29.1247,-21.68079 43.51895,-26.98063 14.10477,-5.19325 37.09822,-6.97759 50.50405,-3.91923 14.30696,3.26394 39.05788,15.99515 52.0581,26.77728 6.45799,5.35614 11.50157,10.4131 11.20795,11.23769 -1.02571,2.88049 -22.23631,18.86099 -32.89436,24.78328 -22.64167,12.58116 -46.11798,16.89075 -66.74241,12.25203 z"
                    id="path10562"
                    transform="matrix(0.26458333,0,0,0.26458333,-20.722615,27.612947)" />
        </g>
    </g>
</svg>